{"title":"How.Do.You.Know.2010.720p.BRRip.x264.Feel-Free","uid":6210846,"size":2741378631,"categoryP":"video","categoryS":"hd___movies","magnet":"?xt=urn:btih:d4692c5e713ecb7dde4407c3082bd03ef2e68699&amp;dn=How.Do.You.Know.2010.720p.BRRip.x264.Feel-Free&amp;tr=udp%3A%2F%2Ftracker.openbittorrent.com%3A80&amp;tr=udp%3A%2F%2Fopen.demonii.com%3A1337&amp;tr=udp%3A%2F%2Ftracker.coppersurfer.tk%3A6969&amp;tr=udp%3A%2F%2Fexodus.desync.com%3A6969","seeders":0,"leechers":1,"uploader":"HeroMaster","files":-1,"time":1298978261,"description":"How.Do.You.Know.2010.720p.BRRip.x264.Feel-Free\n\n\nGenre:Comedy | Drama | Romance\nLanguage:English\nIMDb:http://www.imdb.com/title/tt1341188/\nSource:BluRay.720p.DTS.x264-CHD\n\n\nFormat : MPEG-4\nFormat profile : Base Media\nCodec ID : isom\nFile size : 2.55 GiB\nDuration : 2h 0mn\nOverall bit rate : 3 019 Kbps\n\n\nVideo\nFormat profile : &lt;a class=&quot;__cf_email__&quot; href=&quot;/cdn-cgi/l/email-protection&quot; data-cfemail=&quot;3a72535d527a760e140b&quot;&gt;[email&amp;#160;protected]&lt;/a&gt;&lt;script cf-hash='f9e31' type=&quot;text/javascript&quot;&gt;\n/* &lt;![CDATA[ */!function(){try{var t=&quot;currentScript&quot;in document?document.currentScript:function(){for(var t=document.getElementsByTagName(&quot;script&quot;),e=t.length;e--;)if(t[e].getAttribute(&quot;cf-hash&quot;))return t[e]}();if(t&amp;&amp;t.previousSibling){var e,r,n,i,c=t.previousSibling,a=c.getAttribute(&quot;data-cfemail&quot;);if(a){for(e=&quot;&quot;,r=parseInt(a.substr(0,2),16),n=2;a.length-n;n+=2)i=parseInt(a.substr(n,2),16)^r,e+=String.fromCharCode(i);e=document.createTextNode(e),c.parentNode.replaceChild(e,c)}}}catch(u){}}();/* ]]&gt; */&lt;/script&gt;\nFormat settings, CABAC : Yes\nFormat settings, ReFrames : 3 frames\nCodec ID : avc1\nCodec ID/Info : Advanced Video Coding\nDuration : 2h 0mn\nBit rate mode : Variable\nBit rate : 2 654 Kbps\nMaximum bit rate : 16.1 Mbps\nWidth : 1 280 pixels\nHeight : 688 pixels\nDisplay aspect ratio : 1.860\nFrame rate mode : Constant\nFrame rate : 23.976 fps\nColor space : YUV\nChroma subsampling : 4:2:0\nBit depth : 8 bits\nScan type : Progressive\nBits/(Pixel*Frame) : 0.126\nStream size : 2.20 GiB (86%)\nWriting library : x264\n\n\nAudio\nID : 2\nFormat : AAC\nFormat/Info : Advanced Audio Codec\nFormat version : Version 4\nFormat profile : LC\nFormat settings, SBR : No\nCodec ID : 40\nDuration : 2h 0mn\nBit rate mode : Variable\nBit rate : 411 Kbps\nMaximum bit rate : 535 Kbps\nChannel(s) : 6 channels\nChannel positions : Front: L C R, Side: L R, LFE\nSampling rate : 48.0 KHz\nStream size : 355 MiB (14%)\n\n\nPlot:\n\nAfter being cut from the USA softball team and feeling a bit past her prime, Lisa finds herself evaluating her life and in the middle of a love triangle, as a corporate guy in crisis competes with her current, baseball-playing beau.\n\n\nScreens:\n\n &lt;a href=&quot;\nhttp://leetleech.org/images/58654093169255464179.jpg&quot; rel=&quot;nofollow&quot; target=&quot;_NEW&quot;&gt;\nhttp://leetleech.org/images/58654093169255464179.jpg&lt;/a&gt;\n &lt;a href=&quot;\nhttp://leetleech.org/images/53349823981609436675.jpg&quot; rel=&quot;nofollow&quot; target=&quot;_NEW&quot;&gt;\nhttp://leetleech.org/images/53349823981609436675.jpg&lt;/a&gt;\n &lt;a href=&quot;\nhttp://leetleech.org/images/75971687102858031505.jpg&quot; rel=&quot;nofollow&quot; target=&quot;_NEW&quot;&gt;\nhttp://leetleech.org/images/75971687102858031505.jpg&lt;/a&gt;\n\n\nENJOY!","torrent":{"xt":"urn:btih:d4692c5e713ecb7dde4407c3082bd03ef2e68699","amp;dn":"How.Do.You.Know.2010.720p.BRRip.x264.Feel-Free","amp;tr":["udp%3A%2F%2Ftracker.openbittorrent.com%3A80","udp%3A%2F%2Fopen.demonii.com%3A1337","udp%3A%2F%2Ftracker.coppersurfer.tk%3A6969","udp%3A%2F%2Fexodus.desync.com%3A6969"],"infoHash":"d4692c5e713ecb7dde4407c3082bd03ef2e68699","infoHashBuffer":{"type":"Buffer","data":[212,105,44,94,113,62,203,125,222,68,7,195,8,43,208,62,242,230,134,153]},"announce":[],"urlList":[]}}